<svg xmlns="http://www.w3.org/2000/svg" width="512" height="512" fill-rule="evenodd">
    <path fill="#57a4ff" d="M201.5 7.5c92.772-3.968 161.105 34.532 205 115.5l76 1c9.979.975 16.812 6.142 20.5 15.5v348c-2.5 7.833-7.667 13-15.5 15.5a4549.11 4549.11 0 0 1-190-1c-6.32-2.986-10.487-7.819-12.5-14.5l-1.5-81c-70.289 20.108-134.289 7.941-192-36.5C27.282 312.671 4.782 241.838 24 157.5c4.845-17.853 12.011-34.686 21.5-50.5-9.215.625-17.881 3.292-26 8-7.236 2.231-11.236-.269-12-7.5 3.297-11.146 9.297-20.646 18-28.5 18.561-15.08 39.894-23.08 64-24 32.549-27.019 69.882-42.853 112-47.5zm-160 82c10.075-8.363 21.741-13.529 35-15.5 28.928-3.518 55.262 3.149 79 20a216.15 216.15 0 0 1 19 16c4.45 1.114 8.45.28 12-2.5l5 45.5a519.9 519.9 0 0 1-45-6c5.891-3.936 7.391-9.103 4.5-15.5-30.726-28.856-67.226-42.856-109.5-42zm265 51l175 .5c1.829.273 3.329 1.107 4.5 2.5l1 337c-.5 3.833-2.667 6-6.5 6.5h-173a9.9 9.9 0 0 1-5-2.5l-.5-340c.907-2.109 2.407-3.442 4.5-4z" opacity=".989"/>
    <path fill="#99c8ff" d="M257.5 28.5c35.141 5.736 65.807 20.903 92 45.5a301.13 301.13 0 0 1-38 16.5c-14.282-23.894-32.282-44.56-54-62z"/>
    <path fill="#98c8ff" d="M184.5 26.5c.739-.131 1.406.036 2 .5-15.038 12.037-28.371 25.704-40 41-10.864-3.508-21.864-6.841-33-10 21.53-15.434 45.196-25.934 71-31.5z"/>
    <path d="M212.5 27.5a1444.4 1444.4 0 0 1 1 76c-3.606.289-7.106-.044-10.5-1-.311-6.374-.977-12.707-2-19-3.42-4.253-7.587-5.087-12.5-2.5-3.213 3.549-6.713 6.716-10.5 9.5-5.991-4.493-11.824-9.16-17.5-14 14.833-19.172 32.167-35.505 52-49zm17 0c26.547 17.38 48.214 39.547 65 66.5-21.184 5.871-42.851 9.037-65 9.5v-76zm130 59a4.93 4.93 0 0 1 3 .5 195.81 195.81 0 0 1 25 36.5 450.61 450.61 0 0 1-60 0c-3.122-6.22-5.622-12.553-7.5-19 13.799-4.76 26.966-10.76 39.5-18zm-294 20c17.839 2.887 34.172 9.387 49 19.5-9.791 24.884-15.124 50.717-16 77.5h-65c1.486-35.457 12.153-67.791 32-97zm235 3c1.322-.17 2.489.163 3.5 1l6.5 13c-12.817-.004-21.317 5.996-25.5 18-.5 20.664-.667 41.331-.5 62h-55v-84c24.115-1.112 47.782-4.445 71-10zm-95 10h8v84h-99a199.3 199.3 0 0 1 7-46 26.09 26.09 0 0 0 5 3.5l65 10a42.48 42.48 0 0 0 13 0c3.116-2.4 4.449-5.567 4-9.5a622.37 622.37 0 0 1-3-42z" fill="#99c8ff"/>
    <path fill="#93c5ff" d="M128.5 134.5c1.312.645 2.312 1.645 3 3-6.726 7.953-7.726 6.953-3-3z"/>
    <use href="#B" fill="#56a4ff" opacity=".969"/>
    <use href="#C" fill="#57a3ff" opacity=".972"/>
    <path d="M33.5 219.5h66c.774 34.428 8.774 67.094 24 98-6.438 3.099-13.105 5.933-20 8.5-7.405 3.452-14.572 7.285-21.5 11.5-29.912-33.544-46.079-72.878-48.5-118zm81 0h99v85c-8.007-.166-16.007 0-24 .5-16.883 1.814-33.549 4.481-50 8-14.969-29.373-23.302-60.54-25-93.5zm115 0h55v90a278.87 278.87 0 0 0-55-5v-85z" fill="#99c8ff"/>
    <use href="#C" y="65" fill="#57a4ff" opacity=".941"/>
    <path d="M190.5 320.5h23c.333 25.009 0 50.009-1 75-25.399-17.565-46.565-39.232-63.5-65-.483-.948-.649-1.948-.5-3 14.062-2.788 28.062-5.121 42-7zm39 0c18.457.242 36.79 1.909 55 5a180.87 180.87 0 0 1-.5 19c-15.123 20.125-33.123 37.125-54 51l-.5-75zm-102 13c1.967-.239 3.801.094 5.5 1 14.218 23.558 32.051 44.058 53.5 61.5-35.756-6.378-66.756-22.044-93-47 11.066-6.038 22.4-11.205 34-15.5z" fill="#99c8ff"/><use href="#B" y="195" fill="#57a4ff" opacity=".967"/>
    <path fill="#98c8ff" d="M283.5 369.5c1.326 6.401 1.326 12.901 0 19.5-8.446 3.267-17.113 5.267-26 6 9.835-7.335 18.502-15.835 26-25.5z"/>
    <g fill="#57a4ff">
        <path d="M341.5 409.5c25.625 3.909 34.458 18.242 26.5 43-11.031 14.947-24.864 18.114-41.5 9.5-14.195-13.166-15.695-27.666-4.5-43.5 5.64-5.039 12.14-8.039 19.5-9z" opacity=".977"/>
        <path d="M444.5 409.5c20.852 2.352 30.352 14.018 28.5 35-5.544 17.201-17.377 24.367-35.5 21.5-17.052-6.467-23.552-18.633-19.5-36.5 4.732-12.246 13.565-18.913 26.5-20z" opacity=".979"/>
    </g>
    <path d="M339.5 426.5c14.07.472 18.236 7.139 12.5 20-7.765 6.039-14.431 5.039-20-3-2.34-7.975.16-13.642 7.5-17zm102 0c13.412.223 17.912 6.557 13.5 19-8.296 7.386-15.296 6.386-21-3-1.73-7.407.77-12.74 7.5-16z" fill="#98c8ff"/>
    <defs>
        <path id="B" d="M326.5 174.5l135 .5c5.109 3.366 6.276 7.866 3.5 13.5-.903 1.201-2.069 2.035-3.5 2.5-45 .667-90 .667-135 0-5.109-3.366-6.276-7.866-3.5-13.5 1.145-1.136 2.312-2.136 3.5-3z"/>
        <path id="C" d="M326.5 208.5l135 .5c5.109 3.366 6.276 7.866 3.5 13.5-1.171 1.393-2.671 2.227-4.5 2.5a4420.29 4420.29 0 0 1-133 0c-6.042-2.837-7.542-7.337-4.5-13.5 1.145-1.136 2.312-2.136 3.5-3z"/>
    </defs>
</svg>